<svg width="32" height="32" viewBox="0 0 24 24" fill="none" xmlns="http://www.w3.org/2000/svg">
<path d="M12 21C11.355 20.428 10.626 19.833 9.85501 19.2H9.84501C7.13001 16.98 4.05301 14.468 2.69401 11.458C2.24801 10.5 2.01101 9.458 2.00001 8.4C1.99853 7.68198 2.14052 6.9709 2.41765 6.30852C2.69478 5.64614 3.10147 5.0458 3.61382 4.54277C4.12617 4.03973 4.73387 3.64413 5.40122 3.3792C6.06858 3.11427 6.78214 2.98534 7.50001 3C8.68064 3.00186 9.83585 3.34308 10.828 3.983C11.264 4.26597 11.6584 4.60825 12 5C12.344 4.61 12.738 4.268 13.173 3.983C14.1647 3.34295 15.3197 3.00172 16.5 3C17.2179 2.98534 17.9314 3.11427 18.5988 3.3792C19.2662 3.64413 19.8739 4.03973 20.3862 4.54277C20.8986 5.0458 21.3052 5.64614 21.5824 6.30852C21.8595 6.9709 22.0015 7.68198 22 8.4C21.9898 9.45881 21.7532 10.5032 21.306 11.463C19.947 14.473 16.871 16.984 14.156 19.2L14.146 19.208C13.374 19.837 12.646 20.432 12.001 21.008L12 21ZM7.50001 5C6.56852 4.98834 5.67008 5.34484 5.00001 5.992C4.68047 6.30588 4.42728 6.68079 4.25549 7.09445C4.0837 7.50812 3.99682 7.95209 4.00001 8.4C4.01101 9.17 4.18601 9.93 4.51201 10.628C5.15354 11.9267 6.01914 13.102 7.06901 14.1C8.06001 15.1 9.20001 16.068 10.186 16.882C10.459 17.107 10.737 17.334 11.015 17.561L11.19 17.704C11.457 17.922 11.733 18.148 12 18.37L12.013 18.358L12.019 18.353H12.025L12.034 18.346H12.044L12.062 18.331L12.103 18.298L12.11 18.292L12.121 18.284H12.127L12.136 18.276L12.8 17.731L12.974 17.588C13.255 17.359 13.533 17.132 13.806 16.907C14.792 16.093 15.933 15.126 16.924 14.121C17.9741 13.1236 18.8397 11.9485 19.481 10.65C19.813 9.946 19.991 9.178 20.001 8.4C20.0029 7.95338 19.9154 7.51089 19.7434 7.09868C19.5715 6.68647 19.3187 6.31289 19 6C18.3312 5.34992 17.4326 4.99048 16.5 5C15.9373 4.99522 15.38 5.10956 14.8647 5.33551C14.3494 5.56146 13.8877 5.89391 13.51 6.311L12 8.051L10.49 6.311C10.1123 5.89391 9.65064 5.56146 9.13531 5.33551C8.61999 5.10956 8.06268 4.99522 7.50001 5Z" fill="#5F0080"/>
</svg>
